{"title":"RED 2 AVI","uid":8768372,"size":1549221796,"categoryP":"video","categoryS":"movies","magnet":"?xt=urn:btih:8ff6684308b858d8fa017c7dc56b4e455afbe2c5&amp;dn=RED+2+AVI&amp;tr=udp%3A%2F%2Ftracker.openbittorrent.com%3A80&amp;tr=udp%3A%2F%2Fopen.demonii.com%3A1337&amp;tr=udp%3A%2F%2Ftracker.coppersurfer.tk%3A6969&amp;tr=udp%3A%2F%2Fexodus.desync.com%3A6969","seeders":1,"leechers":0,"uploader":"hungry4momoney","files":3,"time":1375389091,"description":"Retired C.I.A. agent Frank Moses reunites his unlikely team of elite operatives for a global quest to track down a missing portable nuclear device. \n\n\n\nDirector:\n Dean Parisot \n\nWriters:\n Jon Hoeber, Erich Hoeber\n\nStars:\n Bruce Willis, John Malkovich, Helen Mirren\n\nGenres:\n  Action |  Comedy |  Crime |  Thriller \n\nCountry:\n USA | France | Canada \n\nLanguage:\n English \n\n\n\n**\n\n ******************************************************************************************************\n\n Encoder ..........::hmmm:                                                    \n Video Codec.......:AVC \n Video Bitrate.....2 392 Kbps                         \n Audio Codec.......:MPEG Audio                             \n Audio Bitrate.....:128 Kbps                          \n Resolution........:640x336\n Runtime...........:1h 45mn                              \n Release Date......:29/07/13 \n Theatre Date......:19 July 2013 (USA)\n Language..........:English \n Subtitles.........:HC Subs When Needed\n IMDB Rating.......:7.2\n IMDb URL..........:http://www.imdb.com/title/tt1821694\n\n _______________________________________________________________________________\n\nGeneral\n Unique ID                                : 229581379539803997513870364448874709705 (0xACB7C3EE2BA8349E8C13F7E487D242C9)\n Complete name                            :\n Format                                   : Matroska\n Format version                           : Version 2\n File size                                : 1.86 GiB\n Duration                                 : 1h 45mn\n Overall bit rate                         : 2 522 Kbps\n Encoded date                             : UTC 2013-07-29 04:43:30\n Writing application                      : mkvmerge v6.2.0 ('Promised Land') built on Apr  28 2013 12 :22:01\n Writing library                          : libebml v1.3.0 + libmatroska v1.4.0\n\n ________________________________________________________________________________\n\n\n Video\n ID                                       : 1\n Format                                   : AVC\n Format/Info                              : Advanced Video Codec\n Format profile                           : &lt;a class=&quot;__cf_email__&quot; href=&quot;/cdn-cgi/l/email-protection&quot; data-cfemail=&quot;3179585659717d021f00&quot;&gt;[email&amp;#160;protected]&lt;/a&gt;&lt;script cf-hash='f9e31' type=&quot;text/javascript&quot;&gt;\n/* &lt;![CDATA[ */!function(){try{var t=&quot;currentScript&quot;in document?document.currentScript:function(){for(var t=document.getElementsByTagName(&quot;script&quot;),e=t.length;e--;)if(t[e].getAttribute(&quot;cf-hash&quot;))return t[e]}();if(t&amp;&amp;t.previousSibling){var e,r,n,i,c=t.previousSibling,a=c.getAttribute(&quot;data-cfemail&quot;);if(a){for(e=&quot;&quot;,r=parseInt(a.substr(0,2),16),n=2;a.length-n;n+=2)i=parseInt(a.substr(n,2),16)^r,e+=String.fromCharCode(i);e=document.createTextNode(e),c.parentNode.replaceChild(e,c)}}}catch(u){}}();/* ]]&gt; */&lt;/script&gt;\n Format settings, CABAC                   : Yes\n Format settings, ReFrames                : 4 frames\n Codec ID                                 : V_MPEG4/ISO/AVC\n Duration                                 : 1h 45mn\n Bit rate                                 : 2 392 Kbps\n Width                                    : 640 pixels\n Height                                   : 336 pixels\n Display aspect ratio                     : 2.35:1\n Original display aspect ratio            : 2.35:1\n Frame rate                               : 29.970 fps\n Color space                              : YUV\n Chroma subsampling                       : 4:2:0\n Bit depth                                : 8 bits\n Scan type                                : Progressive\n Bits/(Pixel*Frame)                       : 0.371\n Stream size                              : 1.72 GiB (93%)\n Writing library                          : x264 core 133 r2334 a3ac64b\n Encoding settings                        : cabac=1 // deblock=1:-2:-2 / analyse=0x3:0x113 / me=hex / subme=7 / psy=1 / psy_rd=1.00:0.25 // me_range=16 / chroma_me=1 / trellis=1 / 8x8dct=1 / cqm=0 / deadzone=6,6 / fast_pskip=1 / chroma_qp_offset=-4 / threads=6 / lookahead_threads=1 / sliced_threads=0 / nr=0 / decimate=0 / interlaced=0 / bluray_compat=0 / constrained_intra=0 / bframes=3 / b_pyramid=2 / b_adapt=1 / b_bias=0 / direct=1 / weightb=1 / open_gop=0 / weightp=2 / keyint=300 / keyint_min=29 / scenecut=40 / intra_refresh=0 / rc_lookahead=40 / rc=2pass / mbtree=1 / bitrate=2392 / ratetol=1.0 / qcomp=0.80 / qpmin=0 / qpmax=69 / qpstep=4 / cplxblur=20.0 / qblur=0.5 / vbv_maxrate=17500 / vbv_bufsize=17500 / nal_hrd=none / ip_ratio=1.10 / aq=1:0.50\n Default                                  : Yes\n Forced                                   : No\n\n _________________________________________________________________________________\n\n\n Audio\n ID                                       : 2\n Format                                   : MPEG Audio\n Format version                           : Version 1\n Format profile                           : Layer 3\n Mode                                     : Joint stereo\n Mode extension                           : MS Stereo\n Codec ID                                 : A_MPEG/L3\n Codec ID/Hint                            : MP3\n Duration                                 : 1h 45mn\n Bit rate mode                            : Constant\n Bit rate                                 : 128 Kbps\n Channel(s)                               : 2 channels\n Sampling rate                            : 48.0 KHz\n Compression mode                         : Lossy\n Stream size                              : 96.4 MiB (5%)\n Writing library                          : LAME3.99r\n Encoding settings                        : -m j -V 4 -q 2 -lowpass 17 -b 128\n Default                                  : Yes\n Forced                                   : No\n\n _________________________________________________________________________________\n\n\nSOURCES:LittleBirdyThanks\n\n\n\n\nSample Included \n\n _________________________________________________________________________________\n Extra Nfo: a bit shakey &amp; some camera movement but really dnt bother the vids i must say went throught seems pretty good till better come out ;-) the whole movie is their just ran some filters through 4 a clean up highly watch cam for now &amp; audio is good for a cam..added sample to show u what you workin with...enjoy fellas :-) \n","torrent":{"xt":"urn:btih:8ff6684308b858d8fa017c7dc56b4e455afbe2c5","amp;dn":"RED+2+AVI","amp;tr":["udp%3A%2F%2Ftracker.openbittorrent.com%3A80","udp%3A%2F%2Fopen.demonii.com%3A1337","udp%3A%2F%2Ftracker.coppersurfer.tk%3A6969","udp%3A%2F%2Fexodus.desync.com%3A6969"],"infoHash":"8ff6684308b858d8fa017c7dc56b4e455afbe2c5","infoHashBuffer":{"type":"Buffer","data":[143,246,104,67,8,184,88,216,250,1,124,125,197,107,78,69,90,251,226,197]},"announce":[],"urlList":[]}}